<?xml version="1.0" encoding="UTF-8"?>
<svg id="Layer_1" xmlns="http://www.w3.org/2000/svg" version="1.1" viewBox="0 0 1000 1000">
  <!-- Generator: Adobe Illustrator 30.3.0, SVG Export Plug-In . SVG Version: 2.1.3 Build 182)  -->
  <path d="M137.008066,561.976301c-10.504546,12.192053-19.652522,23.081393-29.436266,35.018326-28.653536,36.234217-119.34825,185.946988-50.781455,205.236514,8.18157,2.142844,17.130699,1.601361,24.934681-1.824794l.165085-.072407c11.307257-4.812837,18.656829-15.521005,24.756194-25.891726,4.163217-6.948641,8.58962-13.861243,13.491664-20.381911,10.057228-13.379765,20.71369-24.520802,29.867547-37.108767,13.994608-19.889243,29.750543-39.075877,48.96335-54.474543,23.305572-18.862255,38.064098-26.992463,68.271956-21.757239,34.036327,5.501388,42.375028,18.08109,50.843757,49.634851,13.064593,43.394634,38.355643,112.687746,88.345041,116.890191,37.685624,2.80257,72.409711-34.964791,63.612805-72.368482-4.430441-21.321642-16.564228-39.495973-22.672724-60.393628-2.689904-8.506027-4.904564-17.096243-6.853685-25.891009-2.303128-10.990186-5.259459-24.041868-2.150595-34.669406,4.294143-14.027312,17.79056-18.38983,29.542599-26.485694,3.176608-2.08142,6.268282-4.301076,9.255876-6.641043,32.868268-26.177515,55.38053-66.49243,84.994144-98.869625,52.119407-55.960549,85.785581-124.238,102.192509-199.725701,1.303171-5.64119,2.640113-11.309755,4.044229-16.941081,5.198065-21.803724,12.775234-43.375805,9.283208-65.687429-6.702285-42.678306-48.511818-81.815125-90.900325-83.912068-15.814055-.878043-32.119916.130106-47.949178-.090252-17.553551-.244362-44.852816,2.323211-60.965857,4.349039-17.515987,2.202215-39.904924,7.980985-56.68464,13.146491-12.003663,3.695235-22.817056,9.158647-33.799494,16.37319-117.083143,79.155502-157.528976,235.520104-218.0031,366.425846-5.775361,12.501676-23.378417,35.679419-32.367327,46.112357ZM540.115256,280.272095c-5.547469,22.78581-15.692726,44.256845-25.645045,65.503789-16.006839,34.463345-38.440202,65.582413-62.046361,95.43474-23.757121,29.009736-58.39804,72.054261-96.930184,77.521251-22.136595,2.582753-32.417757-12.897652-30.996436-34.357854,1.036322-19.344003,9.746863-40.76473,17.805813-59.194677,6.145293-13.961896,12.75675-27.739271,19.710701-41.339096,24.734709-46.307606,50.660237-100.441638,102.719738-119.514092,24.466307-8.935522,65.413134-27.037948,76.264978-3.818306,2.094125,4.48079.28678,14.958625-.883204,19.764245Z"/>
</svg>