<?xml version="1.0" encoding="UTF-8"?>
<svg id="Layer_1" xmlns="http://www.w3.org/2000/svg" version="1.1" viewBox="0 0 1000 1000">
  <!-- Generator: Adobe Illustrator 30.3.0, SVG Export Plug-In . SVG Version: 2.1.3 Build 182)  -->
  <path d="M116.549689,321.00694c-12.189018,8.214505-22.065499,24.854051-22.943981,38.431564-1.537356,23.76062-.719006,37.020734,2.635844,46.22914,16.66799,44.906844,79.099696,47.290636,98.785906,3.887476,6.484182-14.295966,7.865361-43.01902,2.877804-59.412416-10.303775-33.945308-52.263503-48.939326-81.355573-29.135764Z"/>
  <path d="M99.248275,584.675332c-13.272972,3.295384-25.209224,12.235899-32.756437,23.569875-5.57103,8.964726-8.987757,18.360475-13.736223,27.774312-19.177283,40.550428-41.212759,86.634662-60.052844,128.632891-3.975645,9.480522-8.617475,17.438815-13.047578,26.55412-3.776322,8.013548-7.13738,16.54832-9.68103,25.021194-16.253291,51.335171,44.752052,92.557336,85.948877,56.385359,9.430182-8.405856,15.535721-20.688198,20.13579-32.619022,4.059359-11.109653,5.749218-21.449477,11.481743-31.46316,25.589989-48.016296,69.765138-140.293888,76.571525-163.740997,1.025157-3.857728,1.057891-6.333859.668092-11.549008-2.008784-31.597305-34.414864-56.482312-65.338644-48.612726l-.193272.047162Z"/>
</svg>